<?xml version="1.0" encoding="UTF-8" standalone="no"?>
<!DOCTYPE svg PUBLIC "-//W3C//DTD SVG 1.1//EN"
 "http://www.w3.org/Graphics/SVG/1.1/DTD/svg11.dtd">
<!-- Generated by graphviz version 2.40.1 (20161225.0304)
 -->
<!-- Title: G Pages: 1 -->
<svg width="1427pt" height="876pt"
 viewBox="0.00 0.00 1427.20 876.41" xmlns="http://www.w3.org/2000/svg" xmlns:xlink="http://www.w3.org/1999/xlink">
<g id="graph0" class="graph" transform="scale(1 1) rotate(0) translate(21.6 854.8073)">
<title>G</title>
<polygon fill="#111111" stroke="transparent" points="-21.6,21.6 -21.6,-854.8073 1405.6,-854.8073 1405.6,21.6 -21.6,21.6"/>
<!-- admin/index.js -->
<g id="node1" class="node">
<title>admin/index.js</title>
<path fill="none" stroke="#c6c5fe" d="M925.8333,-81C925.8333,-81 831.1667,-81 831.1667,-81 827.3333,-81 823.5,-77.1667 823.5,-73.3333 823.5,-73.3333 823.5,-65.6667 823.5,-65.6667 823.5,-61.8333 827.3333,-58 831.1667,-58 831.1667,-58 925.8333,-58 925.8333,-58 929.6667,-58 933.5,-61.8333 933.5,-65.6667 933.5,-65.6667 933.5,-73.3333 933.5,-73.3333 933.5,-77.1667 929.6667,-81 925.8333,-81"/>
<text text-anchor="middle" x="878.5" y="-65.8" font-family="Arial" font-size="14.00" fill="#c6c5fe">admin/index.js</text>
</g>
<!-- services/connection.js -->
<g id="node2" class="node">
<title>services/connection.js</title>
<path fill="none" stroke="#c6c5fe" d="M1165.3333,-63C1165.3333,-63 1020.6667,-63 1020.6667,-63 1016.8333,-63 1013,-59.1667 1013,-55.3333 1013,-55.3333 1013,-47.6667 1013,-47.6667 1013,-43.8333 1016.8333,-40 1020.6667,-40 1020.6667,-40 1165.3333,-40 1165.3333,-40 1169.1667,-40 1173,-43.8333 1173,-47.6667 1173,-47.6667 1173,-55.3333 1173,-55.3333 1173,-59.1667 1169.1667,-63 1165.3333,-63"/>
<text text-anchor="middle" x="1093" y="-47.8" font-family="Arial" font-size="14.00" fill="#c6c5fe">services/connection.js</text>
</g>
<!-- admin/index.js&#45;&gt;services/connection.js -->
<g id="edge1" class="edge">
<title>admin/index.js&#45;&gt;services/connection.js</title>
<path fill="none" stroke="#757575" d="M933.7391,-64.8646C954.8102,-63.0963 979.4155,-61.0316 1002.8953,-59.0612"/>
<polygon fill="#757575" stroke="#757575" points="1003.2033,-62.5478 1012.8755,-58.2237 1002.6178,-55.5723 1003.2033,-62.5478"/>
</g>
<!-- services/database.js -->
<g id="node3" class="node">
<title>services/database.js</title>
<path fill="none" stroke="#cfffac" d="M1363.3333,-220C1363.3333,-220 1229.6667,-220 1229.6667,-220 1225.8333,-220 1222,-216.1667 1222,-212.3333 1222,-212.3333 1222,-204.6667 1222,-204.6667 1222,-200.8333 1225.8333,-197 1229.6667,-197 1229.6667,-197 1363.3333,-197 1363.3333,-197 1367.1667,-197 1371,-200.8333 1371,-204.6667 1371,-204.6667 1371,-212.3333 1371,-212.3333 1371,-216.1667 1367.1667,-220 1363.3333,-220"/>
<text text-anchor="middle" x="1296.5" y="-204.8" font-family="Arial" font-size="14.00" fill="#cfffac">services/database.js</text>
</g>
<!-- admin/index.js&#45;&gt;services/database.js -->
<g id="edge2" class="edge">
<title>admin/index.js&#45;&gt;services/database.js</title>
<path fill="none" stroke="#757575" d="M933.5954,-70.1834C994.4499,-72.7122 1094.2426,-82.184 1173,-115.5 1214.7925,-133.1791 1255.2485,-168.0689 1277.9056,-189.7263"/>
<polygon fill="#757575" stroke="#757575" points="1275.5454,-192.3134 1285.1504,-196.785 1280.4304,-187.2996 1275.5454,-192.3134"/>
</g>
<!-- services/system.js -->
<g id="node4" class="node">
<title>services/system.js</title>
<path fill="none" stroke="#cfffac" d="M1356.3333,-23C1356.3333,-23 1236.6667,-23 1236.6667,-23 1232.8333,-23 1229,-19.1667 1229,-15.3333 1229,-15.3333 1229,-7.6667 1229,-7.6667 1229,-3.8333 1232.8333,0 1236.6667,0 1236.6667,0 1356.3333,0 1356.3333,0 1360.1667,0 1364,-3.8333 1364,-7.6667 1364,-7.6667 1364,-15.3333 1364,-15.3333 1364,-19.1667 1360.1667,-23 1356.3333,-23"/>
<text text-anchor="middle" x="1296.5" y="-7.8" font-family="Arial" font-size="14.00" fill="#cfffac">services/system.js</text>
</g>
<!-- admin/index.js&#45;&gt;services/system.js -->
<g id="edge3" class="edge">
<title>admin/index.js&#45;&gt;services/system.js</title>
<path fill="none" stroke="#757575" d="M910.9235,-57.9618C937.8811,-48.8896 977.4446,-36.7708 1013,-30.5 1081.9709,-18.3358 1161.6372,-13.8201 1218.9221,-12.2106"/>
<polygon fill="#757575" stroke="#757575" points="1219.0848,-15.7077 1228.9913,-11.9511 1218.9044,-8.71 1219.0848,-15.7077"/>
</g>
<!-- services/connection.js&#45;&gt;services/database.js -->
<g id="edge29" class="edge">
<title>services/connection.js&#45;&gt;services/database.js</title>
<path fill="none" stroke="#757575" d="M1141.7071,-63.0339C1152.477,-66.7341 1163.4998,-71.4835 1173,-77.5 1220.417,-107.5292 1262.0772,-159.8843 1282.7271,-188.4706"/>
<polygon fill="#757575" stroke="#757575" points="1280.035,-190.725 1288.6741,-196.8583 1285.7454,-186.6763 1280.035,-190.725"/>
</g>
<!-- services/connection.js&#45;&gt;services/system.js -->
<g id="edge30" class="edge">
<title>services/connection.js&#45;&gt;services/system.js</title>
<path fill="none" stroke="#757575" d="M1151.5876,-39.984C1175.4266,-35.2982 1203.1459,-29.8497 1227.9195,-24.9802"/>
<polygon fill="#757575" stroke="#757575" points="1228.8365,-28.367 1237.9737,-23.0039 1227.4863,-21.4984 1228.8365,-28.367"/>
</g>
<!-- admin/public/jquery&#45;min.js -->
<g id="node5" class="node">
<title>admin/public/jquery&#45;min.js</title>
<path fill="none" stroke="#cfffac" d="M186.3333,-442C186.3333,-442 17.6667,-442 17.6667,-442 13.8333,-442 10,-438.1667 10,-434.3333 10,-434.3333 10,-426.6667 10,-426.6667 10,-422.8333 13.8333,-419 17.6667,-419 17.6667,-419 186.3333,-419 186.3333,-419 190.1667,-419 194,-422.8333 194,-426.6667 194,-426.6667 194,-434.3333 194,-434.3333 194,-438.1667 190.1667,-442 186.3333,-442"/>
<text text-anchor="middle" x="102" y="-426.8" font-family="Arial" font-size="14.00" fill="#cfffac">admin/public/jquery&#45;min.js</text>
</g>
<!-- admin/public/main.js -->
<g id="node6" class="node">
<title>admin/public/main.js</title>
<path fill="none" stroke="#cfffac" d="M168.3333,-483C168.3333,-483 35.6667,-483 35.6667,-483 31.8333,-483 28,-479.1667 28,-475.3333 28,-475.3333 28,-467.6667 28,-467.6667 28,-463.8333 31.8333,-460 35.6667,-460 35.6667,-460 168.3333,-460 168.3333,-460 172.1667,-460 176,-463.8333 176,-467.6667 176,-467.6667 176,-475.3333 176,-475.3333 176,-479.1667 172.1667,-483 168.3333,-483"/>
<text text-anchor="middle" x="102" y="-467.8" font-family="Arial" font-size="14.00" fill="#cfffac">admin/public/main.js</text>
</g>
<!-- camera&#45;recordings.js -->
<g id="node7" class="node">
<title>camera&#45;recordings.js</title>
<path fill="none" stroke="#c6c5fe" d="M946.8333,-745C946.8333,-745 810.1667,-745 810.1667,-745 806.3333,-745 802.5,-741.1667 802.5,-737.3333 802.5,-737.3333 802.5,-729.6667 802.5,-729.6667 802.5,-725.8333 806.3333,-722 810.1667,-722 810.1667,-722 946.8333,-722 946.8333,-722 950.6667,-722 954.5,-725.8333 954.5,-729.6667 954.5,-729.6667 954.5,-737.3333 954.5,-737.3333 954.5,-741.1667 950.6667,-745 946.8333,-745"/>
<text text-anchor="middle" x="878.5" y="-729.8" font-family="Arial" font-size="14.00" fill="#c6c5fe">camera&#45;recordings.js</text>
</g>
<!-- camera&#45;recordings.js&#45;&gt;services/database.js -->
<g id="edge4" class="edge">
<title>camera&#45;recordings.js&#45;&gt;services/database.js</title>
<path fill="none" stroke="#757575" d="M954.5438,-738.4384C1030.7008,-741.6979 1141.0561,-741.2924 1173,-714.5 1249.6614,-650.2016 1286.0714,-318.9464 1294.5334,-230.326"/>
<polygon fill="#757575" stroke="#757575" points="1298.042,-230.396 1295.4861,-220.1141 1291.0723,-229.7457 1298.042,-230.396"/>
</g>
<!-- video&#45;streamer.js -->
<g id="node8" class="node">
<title>video&#45;streamer.js</title>
<path fill="none" stroke="#cfffac" d="M1148.8333,-705C1148.8333,-705 1037.1667,-705 1037.1667,-705 1033.3333,-705 1029.5,-701.1667 1029.5,-697.3333 1029.5,-697.3333 1029.5,-689.6667 1029.5,-689.6667 1029.5,-685.8333 1033.3333,-682 1037.1667,-682 1037.1667,-682 1148.8333,-682 1148.8333,-682 1152.6667,-682 1156.5,-685.8333 1156.5,-689.6667 1156.5,-689.6667 1156.5,-697.3333 1156.5,-697.3333 1156.5,-701.1667 1152.6667,-705 1148.8333,-705"/>
<text text-anchor="middle" x="1093" y="-689.8" font-family="Arial" font-size="14.00" fill="#cfffac">video&#45;streamer.js</text>
</g>
<!-- camera&#45;recordings.js&#45;&gt;video&#45;streamer.js -->
<g id="edge5" class="edge">
<title>camera&#45;recordings.js&#45;&gt;video&#45;streamer.js</title>
<path fill="none" stroke="#757575" d="M940.2545,-721.984C965.6055,-717.2566 995.1194,-711.7528 1021.408,-706.8505"/>
<polygon fill="#757575" stroke="#757575" points="1022.1212,-710.2779 1031.3101,-705.0039 1020.8379,-703.3965 1022.1212,-710.2779"/>
</g>
<!-- devices/device&#45;socket.js -->
<g id="node9" class="node">
<title>devices/device&#45;socket.js</title>
<path fill="none" stroke="#cfffac" d="M1376.3333,-785C1376.3333,-785 1216.6667,-785 1216.6667,-785 1212.8333,-785 1209,-781.1667 1209,-777.3333 1209,-777.3333 1209,-769.6667 1209,-769.6667 1209,-765.8333 1212.8333,-762 1216.6667,-762 1216.6667,-762 1376.3333,-762 1376.3333,-762 1380.1667,-762 1384,-765.8333 1384,-769.6667 1384,-769.6667 1384,-777.3333 1384,-777.3333 1384,-781.1667 1380.1667,-785 1376.3333,-785"/>
<text text-anchor="middle" x="1296.5" y="-769.8" font-family="Arial" font-size="14.00" fill="#cfffac">devices/device&#45;socket.js</text>
</g>
<!-- devices/device.js -->
<g id="node10" class="node">
<title>devices/device.js</title>
<path fill="none" stroke="#ff6c60" d="M1149.3333,-785C1149.3333,-785 1036.6667,-785 1036.6667,-785 1032.8333,-785 1029,-781.1667 1029,-777.3333 1029,-777.3333 1029,-769.6667 1029,-769.6667 1029,-765.8333 1032.8333,-762 1036.6667,-762 1036.6667,-762 1149.3333,-762 1149.3333,-762 1153.1667,-762 1157,-765.8333 1157,-769.6667 1157,-769.6667 1157,-777.3333 1157,-777.3333 1157,-781.1667 1153.1667,-785 1149.3333,-785"/>
<text text-anchor="middle" x="1093" y="-769.8" font-family="Arial" font-size="14.00" fill="#ff6c60">devices/device.js</text>
</g>
<!-- devices/device.js&#45;&gt;services/database.js -->
<g id="edge7" class="edge">
<title>devices/device.js&#45;&gt;services/database.js</title>
<path fill="none" stroke="#757575" d="M1152.6828,-761.9273C1160.2989,-758.3381 1167.3815,-753.6421 1173,-747.5 1244.9257,-668.8708 1284.9803,-321.2637 1294.35,-230.3303"/>
<polygon fill="#757575" stroke="#757575" points="1297.8593,-230.414 1295.3839,-220.1124 1290.8949,-229.7092 1297.8593,-230.414"/>
</g>
<!-- devices/device.js&#45;&gt;devices/device&#45;socket.js -->
<g id="edge6" class="edge">
<title>devices/device.js&#45;&gt;devices/device&#45;socket.js</title>
<path fill="none" stroke="#757575" d="M1157.1094,-773.5C1170.328,-773.5 1184.5332,-773.5 1198.6386,-773.5"/>
<polygon fill="#757575" stroke="#757575" points="1198.8765,-777.0001 1208.8764,-773.5 1198.8764,-770.0001 1198.8765,-777.0001"/>
</g>
<!-- services/services&#45;manager.js -->
<g id="node11" class="node">
<title>services/services&#45;manager.js</title>
<path fill="none" stroke="#ff6c60" d="M196.3333,-401C196.3333,-401 7.6667,-401 7.6667,-401 3.8333,-401 0,-397.1667 0,-393.3333 0,-393.3333 0,-385.6667 0,-385.6667 0,-381.8333 3.8333,-378 7.6667,-378 7.6667,-378 196.3333,-378 196.3333,-378 200.1667,-378 204,-381.8333 204,-385.6667 204,-385.6667 204,-393.3333 204,-393.3333 204,-397.1667 200.1667,-401 196.3333,-401"/>
<text text-anchor="middle" x="102" y="-385.8" font-family="Arial" font-size="14.00" fill="#ff6c60">services/services&#45;manager.js</text>
</g>
<!-- devices/device.js&#45;&gt;services/services&#45;manager.js -->
<g id="edge8" class="edge">
<title>devices/device.js&#45;&gt;services/services&#45;manager.js</title>
<path fill="none" stroke="#757575" d="M1050.635,-785.1139C910.3377,-820.7202 457.4702,-912.2912 240,-677.5 158.3338,-589.3292 286.3894,-496.9954 204,-409.5 203.3505,-408.8103 202.6848,-408.1404 202.0037,-407.4899"/>
<polygon fill="#757575" stroke="#757575" points="204.1637,-404.7358 194.1633,-401.2369 199.7991,-410.2085 204.1637,-404.7358"/>
</g>
<!-- services/camera&#45;service.js -->
<g id="node24" class="node">
<title>services/camera&#45;service.js</title>
<path fill="none" stroke="#c6c5fe" d="M444.3333,-668C444.3333,-668 271.6667,-668 271.6667,-668 267.8333,-668 264,-664.1667 264,-660.3333 264,-660.3333 264,-652.6667 264,-652.6667 264,-648.8333 267.8333,-645 271.6667,-645 271.6667,-645 444.3333,-645 444.3333,-645 448.1667,-645 452,-648.8333 452,-652.6667 452,-652.6667 452,-660.3333 452,-660.3333 452,-664.1667 448.1667,-668 444.3333,-668"/>
<text text-anchor="middle" x="358" y="-652.8" font-family="Arial" font-size="14.00" fill="#c6c5fe">services/camera&#45;service.js</text>
</g>
<!-- services/services&#45;manager.js&#45;&gt;services/camera&#45;service.js -->
<g id="edge47" class="edge">
<title>services/services&#45;manager.js&#45;&gt;services/camera&#45;service.js</title>
<path fill="none" stroke="#757575" d="M192.8325,-401.0848C196.8448,-403.4775 200.6035,-406.2632 204,-409.5 252.3811,-455.6068 204.936,-498.6046 240,-555.5 262.371,-591.7996 302.1257,-621.7903 329.2541,-639.4166"/>
<polygon fill="#757575" stroke="#757575" points="327.6063,-642.516 337.9267,-644.9115 331.3527,-636.6029 327.6063,-642.516"/>
</g>
<!-- services/service.js -->
<g id="node25" class="node">
<title>services/service.js</title>
<path fill="none" stroke="#cfffac" d="M687.8333,-342C687.8333,-342 568.1667,-342 568.1667,-342 564.3333,-342 560.5,-338.1667 560.5,-334.3333 560.5,-334.3333 560.5,-326.6667 560.5,-326.6667 560.5,-322.8333 564.3333,-319 568.1667,-319 568.1667,-319 687.8333,-319 687.8333,-319 691.6667,-319 695.5,-322.8333 695.5,-326.6667 695.5,-326.6667 695.5,-334.3333 695.5,-334.3333 695.5,-338.1667 691.6667,-342 687.8333,-342"/>
<text text-anchor="middle" x="628" y="-326.8" font-family="Arial" font-size="14.00" fill="#cfffac">services/service.js</text>
</g>
<!-- services/services&#45;manager.js&#45;&gt;services/service.js -->
<g id="edge53" class="edge">
<title>services/services&#45;manager.js&#45;&gt;services/service.js</title>
<path fill="none" stroke="#757575" d="M133.0029,-377.9313C160.6413,-368.1898 202.419,-354.8573 240,-348.5 346.2654,-330.5238 471.0747,-327.9773 549.8546,-328.6012"/>
<polygon fill="#757575" stroke="#757575" points="550.1475,-332.1042 560.1816,-328.7033 550.2167,-325.1045 550.1475,-332.1042"/>
</g>
<!-- services/contact&#45;sensor&#45;service.js -->
<g id="node26" class="node">
<title>services/contact&#45;sensor&#45;service.js</title>
<path fill="none" stroke="#c6c5fe" d="M468.3333,-301C468.3333,-301 247.6667,-301 247.6667,-301 243.8333,-301 240,-297.1667 240,-293.3333 240,-293.3333 240,-285.6667 240,-285.6667 240,-281.8333 243.8333,-278 247.6667,-278 247.6667,-278 468.3333,-278 468.3333,-278 472.1667,-278 476,-281.8333 476,-285.6667 476,-285.6667 476,-293.3333 476,-293.3333 476,-297.1667 472.1667,-301 468.3333,-301"/>
<text text-anchor="middle" x="358" y="-285.8" font-family="Arial" font-size="14.00" fill="#c6c5fe">services/contact&#45;sensor&#45;service.js</text>
</g>
<!-- services/services&#45;manager.js&#45;&gt;services/contact&#45;sensor&#45;service.js -->
<g id="edge48" class="edge">
<title>services/services&#45;manager.js&#45;&gt;services/contact&#45;sensor&#45;service.js</title>
<path fill="none" stroke="#757575" d="M119.988,-377.7556C145.6288,-361.513 194.6194,-332.2992 240,-315.5 252.8227,-310.7532 266.7652,-306.7381 280.4262,-303.3899"/>
<polygon fill="#757575" stroke="#757575" points="281.3695,-306.7636 290.3036,-301.0687 279.7681,-299.9492 281.3695,-306.7636"/>
</g>
<!-- services/gateway&#45;service.js -->
<g id="node31" class="node">
<title>services/gateway&#45;service.js</title>
<path fill="none" stroke="#ff6c60" d="M447.3333,-260C447.3333,-260 268.6667,-260 268.6667,-260 264.8333,-260 261,-256.1667 261,-252.3333 261,-252.3333 261,-244.6667 261,-244.6667 261,-240.8333 264.8333,-237 268.6667,-237 268.6667,-237 447.3333,-237 447.3333,-237 451.1667,-237 455,-240.8333 455,-244.6667 455,-244.6667 455,-252.3333 455,-252.3333 455,-256.1667 451.1667,-260 447.3333,-260"/>
<text text-anchor="middle" x="358" y="-244.8" font-family="Arial" font-size="14.00" fill="#ff6c60">services/gateway&#45;service.js</text>
</g>
<!-- services/services&#45;manager.js&#45;&gt;services/gateway&#45;service.js -->
<g id="edge49" class="edge">
<title>services/services&#45;manager.js&#45;&gt;services/gateway&#45;service.js</title>
<path fill="none" stroke="#757575" d="M111.2672,-377.8535C131.6303,-353.1596 183.0237,-295.5936 240,-268.5 244.0681,-266.5655 248.2935,-264.8152 252.6203,-263.2318"/>
<polygon fill="#757575" stroke="#757575" points="253.8542,-266.5099 262.2329,-260.0254 251.6392,-259.8696 253.8542,-266.5099"/>
</g>
<!-- services/hue&#45;bridge&#45;service.js -->
<g id="node32" class="node">
<title>services/hue&#45;bridge&#45;service.js</title>
<path fill="none" stroke="#c6c5fe" d="M454.8333,-381C454.8333,-381 261.1667,-381 261.1667,-381 257.3333,-381 253.5,-377.1667 253.5,-373.3333 253.5,-373.3333 253.5,-365.6667 253.5,-365.6667 253.5,-361.8333 257.3333,-358 261.1667,-358 261.1667,-358 454.8333,-358 454.8333,-358 458.6667,-358 462.5,-361.8333 462.5,-365.6667 462.5,-365.6667 462.5,-373.3333 462.5,-373.3333 462.5,-377.1667 458.6667,-381 454.8333,-381"/>
<text text-anchor="middle" x="358" y="-365.8" font-family="Arial" font-size="14.00" fill="#c6c5fe">services/hue&#45;bridge&#45;service.js</text>
</g>
<!-- services/services&#45;manager.js&#45;&gt;services/hue&#45;bridge&#45;service.js -->
<g id="edge50" class="edge">
<title>services/services&#45;manager.js&#45;&gt;services/hue&#45;bridge&#45;service.js</title>
<path fill="none" stroke="#757575" d="M204.2816,-381.5092C217.0292,-380.5133 230.1316,-379.4897 243.0547,-378.4801"/>
<polygon fill="#757575" stroke="#757575" points="243.6732,-381.9425 253.3701,-377.6742 243.1279,-374.9638 243.6732,-381.9425"/>
</g>
<!-- services/light&#45;service.js -->
<g id="node33" class="node">
<title>services/light&#45;service.js</title>
<path fill="none" stroke="#c6c5fe" d="M433.3333,-200C433.3333,-200 282.6667,-200 282.6667,-200 278.8333,-200 275,-196.1667 275,-192.3333 275,-192.3333 275,-184.6667 275,-184.6667 275,-180.8333 278.8333,-177 282.6667,-177 282.6667,-177 433.3333,-177 433.3333,-177 437.1667,-177 441,-180.8333 441,-184.6667 441,-184.6667 441,-192.3333 441,-192.3333 441,-196.1667 437.1667,-200 433.3333,-200"/>
<text text-anchor="middle" x="358" y="-184.8" font-family="Arial" font-size="14.00" fill="#c6c5fe">services/light&#45;service.js</text>
</g>
<!-- services/services&#45;manager.js&#45;&gt;services/light&#45;service.js -->
<g id="edge51" class="edge">
<title>services/services&#45;manager.js&#45;&gt;services/light&#45;service.js</title>
<path fill="none" stroke="#757575" d="M108.7665,-377.8071C126.469,-348.2277 177.1585,-269.778 240,-227.5 255.9332,-216.7806 275.0507,-208.8007 293.2124,-202.9511"/>
<polygon fill="#757575" stroke="#757575" points="294.344,-206.2652 302.8879,-200.0001 292.3018,-199.5697 294.344,-206.2652"/>
</g>
<!-- services/lock&#45;service.js -->
<g id="node34" class="node">
<title>services/lock&#45;service.js</title>
<path fill="none" stroke="#c6c5fe" d="M433.3333,-463C433.3333,-463 282.6667,-463 282.6667,-463 278.8333,-463 275,-459.1667 275,-455.3333 275,-455.3333 275,-447.6667 275,-447.6667 275,-443.8333 278.8333,-440 282.6667,-440 282.6667,-440 433.3333,-440 433.3333,-440 437.1667,-440 441,-443.8333 441,-447.6667 441,-447.6667 441,-455.3333 441,-455.3333 441,-459.1667 437.1667,-463 433.3333,-463"/>
<text text-anchor="middle" x="358" y="-447.8" font-family="Arial" font-size="14.00" fill="#c6c5fe">services/lock&#45;service.js</text>
</g>
<!-- services/services&#45;manager.js&#45;&gt;services/lock&#45;service.js -->
<g id="edge52" class="edge">
<title>services/services&#45;manager.js&#45;&gt;services/lock&#45;service.js</title>
<path fill="none" stroke="#757575" d="M176.9688,-401.0148C186.2155,-403.3613 195.4232,-406.1627 204,-409.5 221.4748,-416.2997 222.4392,-424.9257 240,-431.5 247.9023,-434.4584 256.2668,-436.9815 264.7481,-439.133"/>
<polygon fill="#757575" stroke="#757575" points="264.2005,-442.5999 274.7372,-441.4917 265.8092,-435.7872 264.2005,-442.5999"/>
</g>
<!-- services/siren&#45;service.js -->
<g id="node35" class="node">
<title>services/siren&#45;service.js</title>
<path fill="none" stroke="#c6c5fe" d="M435.8333,-546C435.8333,-546 280.1667,-546 280.1667,-546 276.3333,-546 272.5,-542.1667 272.5,-538.3333 272.5,-538.3333 272.5,-530.6667 272.5,-530.6667 272.5,-526.8333 276.3333,-523 280.1667,-523 280.1667,-523 435.8333,-523 435.8333,-523 439.6667,-523 443.5,-526.8333 443.5,-530.6667 443.5,-530.6667 443.5,-538.3333 443.5,-538.3333 443.5,-542.1667 439.6667,-546 435.8333,-546"/>
<text text-anchor="middle" x="358" y="-530.8" font-family="Arial" font-size="14.00" fill="#c6c5fe">services/siren&#45;service.js</text>
</g>
<!-- services/services&#45;manager.js&#45;&gt;services/siren&#45;service.js -->
<g id="edge54" class="edge">
<title>services/services&#45;manager.js&#45;&gt;services/siren&#45;service.js</title>
<path fill="none" stroke="#757575" d="M189.3439,-401.1309C194.5162,-403.4721 199.4557,-406.2376 204,-409.5 230.1973,-428.3069 216.7968,-450.1033 240,-472.5 261.4609,-493.215 291.2236,-508.7874 315.4883,-519.1444"/>
<polygon fill="#757575" stroke="#757575" points="314.249,-522.4192 324.8283,-522.993 316.9159,-515.9471 314.249,-522.4192"/>
</g>
<!-- services/thermostat&#45;service.js -->
<g id="node36" class="node">
<title>services/thermostat&#45;service.js</title>
<path fill="none" stroke="#c6c5fe" d="M454.3333,-422C454.3333,-422 261.6667,-422 261.6667,-422 257.8333,-422 254,-418.1667 254,-414.3333 254,-414.3333 254,-406.6667 254,-406.6667 254,-402.8333 257.8333,-399 261.6667,-399 261.6667,-399 454.3333,-399 454.3333,-399 458.1667,-399 462,-402.8333 462,-406.6667 462,-406.6667 462,-414.3333 462,-414.3333 462,-418.1667 458.1667,-422 454.3333,-422"/>
<text text-anchor="middle" x="358" y="-406.8" font-family="Arial" font-size="14.00" fill="#c6c5fe">services/thermostat&#45;service.js</text>
</g>
<!-- services/services&#45;manager.js&#45;&gt;services/thermostat&#45;service.js -->
<g id="edge55" class="edge">
<title>services/services&#45;manager.js&#45;&gt;services/thermostat&#45;service.js</title>
<path fill="none" stroke="#757575" d="M204.2816,-397.8903C217.2664,-398.9554 230.6193,-400.0508 243.7759,-401.1301"/>
<polygon fill="#757575" stroke="#757575" points="243.5365,-404.6221 253.7892,-401.9515 244.1089,-397.6455 243.5365,-404.6221"/>
</g>
<!-- devices/devices&#45;manager.js -->
<g id="node12" class="node">
<title>devices/devices&#45;manager.js</title>
<path fill="none" stroke="#ff6c60" d="M969.3333,-180C969.3333,-180 787.6667,-180 787.6667,-180 783.8333,-180 780,-176.1667 780,-172.3333 780,-172.3333 780,-164.6667 780,-164.6667 780,-160.8333 783.8333,-157 787.6667,-157 787.6667,-157 969.3333,-157 969.3333,-157 973.1667,-157 977,-160.8333 977,-164.6667 977,-164.6667 977,-172.3333 977,-172.3333 977,-176.1667 973.1667,-180 969.3333,-180"/>
<text text-anchor="middle" x="878.5" y="-164.8" font-family="Arial" font-size="14.00" fill="#ff6c60">devices/devices&#45;manager.js</text>
</g>
<!-- devices/devices&#45;manager.js&#45;&gt;services/database.js -->
<g id="edge10" class="edge">
<title>devices/devices&#45;manager.js&#45;&gt;services/database.js</title>
<path fill="none" stroke="#757575" d="M977.0601,-176.5863C1034.2949,-181.4359 1107.76,-187.9233 1173,-194.5 1185.4515,-195.7552 1198.5997,-197.1602 1211.49,-198.5827"/>
<polygon fill="#757575" stroke="#757575" points="1211.4284,-202.0974 1221.7542,-199.7248 1212.2026,-195.1403 1211.4284,-202.0974"/>
</g>
<!-- devices/devices&#45;manager.js&#45;&gt;devices/device.js -->
<g id="edge9" class="edge">
<title>devices/devices&#45;manager.js&#45;&gt;devices/device.js</title>
<path fill="none" stroke="#757575" d="M913.7609,-180.0261C935.8631,-189.214 962.7733,-204.423 977,-227.5 1033.9477,-319.8743 960.5397,-619.5054 1013,-714.5 1023.1364,-732.8549 1041.6715,-747.077 1058.3498,-756.9547"/>
<polygon fill="#757575" stroke="#757575" points="1056.9232,-760.167 1067.3593,-761.994 1060.3403,-754.0577 1056.9232,-760.167"/>
</g>
<!-- hue.js -->
<g id="node13" class="node">
<title>hue.js</title>
<path fill="none" stroke="#cfffac" d="M122.3333,-524C122.3333,-524 81.6667,-524 81.6667,-524 77.8333,-524 74,-520.1667 74,-516.3333 74,-516.3333 74,-508.6667 74,-508.6667 74,-504.8333 77.8333,-501 81.6667,-501 81.6667,-501 122.3333,-501 122.3333,-501 126.1667,-501 130,-504.8333 130,-508.6667 130,-508.6667 130,-516.3333 130,-516.3333 130,-520.1667 126.1667,-524 122.3333,-524"/>
<text text-anchor="middle" x="102" y="-508.8" font-family="Arial" font-size="14.00" fill="#cfffac">hue.js</text>
</g>
<!-- index.js -->
<g id="node14" class="node">
<title>index.js</title>
<path fill="none" stroke="#c6c5fe" d="M653.3333,-59C653.3333,-59 602.6667,-59 602.6667,-59 598.8333,-59 595,-55.1667 595,-51.3333 595,-51.3333 595,-43.6667 595,-43.6667 595,-39.8333 598.8333,-36 602.6667,-36 602.6667,-36 653.3333,-36 653.3333,-36 657.1667,-36 661,-39.8333 661,-43.6667 661,-43.6667 661,-51.3333 661,-51.3333 661,-55.1667 657.1667,-59 653.3333,-59"/>
<text text-anchor="middle" x="628" y="-43.8" font-family="Arial" font-size="14.00" fill="#c6c5fe">index.js</text>
</g>
<!-- index.js&#45;&gt;admin/index.js -->
<g id="edge11" class="edge">
<title>index.js&#45;&gt;admin/index.js</title>
<path fill="none" stroke="#757575" d="M661.0061,-50.3987C699.5801,-53.7865 764.3476,-59.4746 813.1958,-63.7647"/>
<polygon fill="#757575" stroke="#757575" points="813.0947,-67.2692 823.3626,-64.6576 813.7072,-60.2961 813.0947,-67.2692"/>
</g>
<!-- index.js&#45;&gt;services/connection.js -->
<g id="edge13" class="edge">
<title>index.js&#45;&gt;services/connection.js</title>
<path fill="none" stroke="#757575" d="M661.2053,-47.3411C723.246,-47.1008 860.9811,-46.8338 977,-48.5 985.3249,-48.6196 993.9852,-48.7787 1002.6555,-48.9615"/>
<polygon fill="#757575" stroke="#757575" points="1002.7439,-52.4642 1012.8188,-49.1861 1002.8986,-45.466 1002.7439,-52.4642"/>
</g>
<!-- index.js&#45;&gt;services/database.js -->
<g id="edge14" class="edge">
<title>index.js&#45;&gt;services/database.js</title>
<path fill="none" stroke="#757575" d="M661.1188,-49.8689C684.8083,-52.3575 717.1243,-57.3949 744,-67.5 761.5515,-74.0993 762.6089,-82.489 780,-89.5 945.9203,-156.3881 999.0508,-134.7242 1173,-176.5 1196.252,-182.0842 1221.8576,-188.6499 1243.6958,-194.376"/>
<polygon fill="#757575" stroke="#757575" points="1242.881,-197.7806 1253.4426,-196.9412 1244.6628,-191.0112 1242.881,-197.7806"/>
</g>
<!-- index.js&#45;&gt;services/system.js -->
<g id="edge15" class="edge">
<title>index.js&#45;&gt;services/system.js</title>
<path fill="none" stroke="#757575" d="M661.1392,-43.2348C727.6852,-34.9095 882.3788,-16.7622 1013,-10.5 1084.0295,-7.0947 1101.8895,-10.2121 1173,-10.5 1187.7209,-10.5596 1203.4286,-10.6592 1218.535,-10.7729"/>
<polygon fill="#757575" stroke="#757575" points="1218.8507,-14.2754 1228.8777,-10.8537 1218.9054,-7.2756 1218.8507,-14.2754"/>
</g>
<!-- index.js&#45;&gt;devices/devices&#45;manager.js -->
<g id="edge12" class="edge">
<title>index.js&#45;&gt;devices/devices&#45;manager.js</title>
<path fill="none" stroke="#757575" d="M661.1782,-45.445C686.2821,-45.5937 720.3567,-49.6377 744,-67.5 773.5016,-89.7882 751.4995,-118.9451 780,-142.5 784.8759,-146.5298 790.312,-149.9411 796.0566,-152.828"/>
<polygon fill="#757575" stroke="#757575" points="794.7426,-156.0742 805.3015,-156.9466 797.5912,-149.68 794.7426,-156.0742"/>
</g>
<!-- zwave.js -->
<g id="node15" class="node">
<title>zwave.js</title>
<path fill="none" stroke="#c6c5fe" d="M907.3333,-260C907.3333,-260 849.6667,-260 849.6667,-260 845.8333,-260 842,-256.1667 842,-252.3333 842,-252.3333 842,-244.6667 842,-244.6667 842,-240.8333 845.8333,-237 849.6667,-237 849.6667,-237 907.3333,-237 907.3333,-237 911.1667,-237 915,-240.8333 915,-244.6667 915,-244.6667 915,-252.3333 915,-252.3333 915,-256.1667 911.1667,-260 907.3333,-260"/>
<text text-anchor="middle" x="878.5" y="-244.8" font-family="Arial" font-size="14.00" fill="#c6c5fe">zwave.js</text>
</g>
<!-- index.js&#45;&gt;zwave.js -->
<g id="edge16" class="edge">
<title>index.js&#45;&gt;zwave.js</title>
<path fill="none" stroke="#757575" d="M661.2264,-44.4357C686.861,-43.9437 721.6142,-47.6202 744,-67.5 785.9527,-104.7562 745.7579,-144.0531 780,-188.5 794.9803,-207.9447 818.1998,-222.5251 838.3329,-232.4411"/>
<polygon fill="#757575" stroke="#757575" points="837.0817,-235.7202 847.6212,-236.8021 840.0568,-229.3838 837.0817,-235.7202"/>
</g>
<!-- zwave.js&#45;&gt;services/database.js -->
<g id="edge62" class="edge">
<title>zwave.js&#45;&gt;services/database.js</title>
<path fill="none" stroke="#757575" d="M915.2575,-245.5497C971.0189,-241.0075 1080.3106,-231.8437 1173,-222.5 1185.4515,-221.2448 1198.5997,-219.8398 1211.49,-218.4173"/>
<polygon fill="#757575" stroke="#757575" points="1212.2026,-221.8597 1221.7542,-217.2752 1211.4284,-214.9026 1212.2026,-221.8597"/>
</g>
<!-- services/api/camera&#45;api.js -->
<g id="node16" class="node">
<title>services/api/camera&#45;api.js</title>
<path fill="none" stroke="#c6c5fe" d="M712.8333,-668C712.8333,-668 543.1667,-668 543.1667,-668 539.3333,-668 535.5,-664.1667 535.5,-660.3333 535.5,-660.3333 535.5,-652.6667 535.5,-652.6667 535.5,-648.8333 539.3333,-645 543.1667,-645 543.1667,-645 712.8333,-645 712.8333,-645 716.6667,-645 720.5,-648.8333 720.5,-652.6667 720.5,-652.6667 720.5,-660.3333 720.5,-660.3333 720.5,-664.1667 716.6667,-668 712.8333,-668"/>
<text text-anchor="middle" x="628" y="-652.8" font-family="Arial" font-size="14.00" fill="#c6c5fe">services/api/camera&#45;api.js</text>
</g>
<!-- services/api/camera&#45;api.js&#45;&gt;camera&#45;recordings.js -->
<g id="edge17" class="edge">
<title>services/api/camera&#45;api.js&#45;&gt;camera&#45;recordings.js</title>
<path fill="none" stroke="#757575" d="M665.5024,-668.0277C709.5907,-681.5798 782.8298,-704.0924 830.8879,-718.8648"/>
<polygon fill="#757575" stroke="#757575" points="830.1542,-722.3008 840.7412,-721.8935 832.211,-715.6098 830.1542,-722.3008"/>
</g>
<!-- services/api/service&#45;api.js -->
<g id="node17" class="node">
<title>services/api/service&#45;api.js</title>
<path fill="none" stroke="#cfffac" d="M961.8333,-465C961.8333,-465 795.1667,-465 795.1667,-465 791.3333,-465 787.5,-461.1667 787.5,-457.3333 787.5,-457.3333 787.5,-449.6667 787.5,-449.6667 787.5,-445.8333 791.3333,-442 795.1667,-442 795.1667,-442 961.8333,-442 961.8333,-442 965.6667,-442 969.5,-445.8333 969.5,-449.6667 969.5,-449.6667 969.5,-457.3333 969.5,-457.3333 969.5,-461.1667 965.6667,-465 961.8333,-465"/>
<text text-anchor="middle" x="878.5" y="-449.8" font-family="Arial" font-size="14.00" fill="#cfffac">services/api/service&#45;api.js</text>
</g>
<!-- services/api/camera&#45;api.js&#45;&gt;services/api/service&#45;api.js -->
<g id="edge18" class="edge">
<title>services/api/camera&#45;api.js&#45;&gt;services/api/service&#45;api.js</title>
<path fill="none" stroke="#757575" d="M657.7556,-644.8021C682.2156,-634.406 717.0983,-617.7397 744,-597.5 793.7605,-560.0623 840.7596,-503.0583 863.7652,-473.2422"/>
<polygon fill="#757575" stroke="#757575" points="866.5769,-475.327 869.8561,-465.2524 861.0101,-471.0831 866.5769,-475.327"/>
</g>
<!-- services/api/contact&#45;sensor&#45;api.js -->
<g id="node18" class="node">
<title>services/api/contact&#45;sensor&#45;api.js</title>
<path fill="none" stroke="#c6c5fe" d="M736.3333,-301C736.3333,-301 519.6667,-301 519.6667,-301 515.8333,-301 512,-297.1667 512,-293.3333 512,-293.3333 512,-285.6667 512,-285.6667 512,-281.8333 515.8333,-278 519.6667,-278 519.6667,-278 736.3333,-278 736.3333,-278 740.1667,-278 744,-281.8333 744,-285.6667 744,-285.6667 744,-293.3333 744,-293.3333 744,-297.1667 740.1667,-301 736.3333,-301"/>
<text text-anchor="middle" x="628" y="-285.8" font-family="Arial" font-size="14.00" fill="#c6c5fe">services/api/contact&#45;sensor&#45;api.js</text>
</g>
<!-- services/api/contact&#45;sensor&#45;api.js&#45;&gt;services/api/service&#45;api.js -->
<g id="edge19" class="edge">
<title>services/api/contact&#45;sensor&#45;api.js&#45;&gt;services/api/service&#45;api.js</title>
<path fill="none" stroke="#757575" d="M724.612,-301.0874C731.3501,-303.4214 737.8861,-306.1987 744,-309.5 799.615,-339.5309 845.0119,-401.2215 865.9708,-433.2298"/>
<polygon fill="#757575" stroke="#757575" points="863.1081,-435.2496 871.4495,-441.782 869.0024,-431.4736 863.1081,-435.2496"/>
</g>
<!-- services/api/gateway&#45;api.js -->
<g id="node19" class="node">
<title>services/api/gateway&#45;api.js</title>
<path fill="none" stroke="#c6c5fe" d="M715.8333,-260C715.8333,-260 540.1667,-260 540.1667,-260 536.3333,-260 532.5,-256.1667 532.5,-252.3333 532.5,-252.3333 532.5,-244.6667 532.5,-244.6667 532.5,-240.8333 536.3333,-237 540.1667,-237 540.1667,-237 715.8333,-237 715.8333,-237 719.6667,-237 723.5,-240.8333 723.5,-244.6667 723.5,-244.6667 723.5,-252.3333 723.5,-252.3333 723.5,-256.1667 719.6667,-260 715.8333,-260"/>
<text text-anchor="middle" x="628" y="-244.8" font-family="Arial" font-size="14.00" fill="#c6c5fe">services/api/gateway&#45;api.js</text>
</g>
<!-- services/api/gateway&#45;api.js&#45;&gt;services/api/service&#45;api.js -->
<g id="edge20" class="edge">
<title>services/api/gateway&#45;api.js&#45;&gt;services/api/service&#45;api.js</title>
<path fill="none" stroke="#757575" d="M723.6287,-258.7071C730.7804,-261.3374 737.6662,-264.5603 744,-268.5 809.0005,-308.9311 852.3745,-393.3738 869.8345,-432.6187"/>
<polygon fill="#757575" stroke="#757575" points="866.7076,-434.2058 873.8914,-441.9932 873.1318,-431.4257 866.7076,-434.2058"/>
</g>
<!-- services/api/light&#45;api.js -->
<g id="node20" class="node">
<title>services/api/light&#45;api.js</title>
<path fill="none" stroke="#c6c5fe" d="M701.3333,-180C701.3333,-180 554.6667,-180 554.6667,-180 550.8333,-180 547,-176.1667 547,-172.3333 547,-172.3333 547,-164.6667 547,-164.6667 547,-160.8333 550.8333,-157 554.6667,-157 554.6667,-157 701.3333,-157 701.3333,-157 705.1667,-157 709,-160.8333 709,-164.6667 709,-164.6667 709,-172.3333 709,-172.3333 709,-176.1667 705.1667,-180 701.3333,-180"/>
<text text-anchor="middle" x="628" y="-164.8" font-family="Arial" font-size="14.00" fill="#c6c5fe">services/api/light&#45;api.js</text>
</g>
<!-- services/api/light&#45;api.js&#45;&gt;services/api/service&#45;api.js -->
<g id="edge21" class="edge">
<title>services/api/light&#45;api.js&#45;&gt;services/api/service&#45;api.js</title>
<path fill="none" stroke="#757575" d="M662.3236,-180.0357C687.212,-189.7118 720.4913,-205.5008 744,-227.5 777.8405,-259.1677 842.5934,-382.7369 867.9485,-432.5324"/>
<polygon fill="#757575" stroke="#757575" points="864.9621,-434.3821 872.6049,-441.7195 871.2059,-431.2174 864.9621,-434.3821"/>
</g>
<!-- services/api/lock&#45;api.js -->
<g id="node21" class="node">
<title>services/api/lock&#45;api.js</title>
<path fill="none" stroke="#c6c5fe" d="M701.3333,-506C701.3333,-506 554.6667,-506 554.6667,-506 550.8333,-506 547,-502.1667 547,-498.3333 547,-498.3333 547,-490.6667 547,-490.6667 547,-486.8333 550.8333,-483 554.6667,-483 554.6667,-483 701.3333,-483 701.3333,-483 705.1667,-483 709,-486.8333 709,-490.6667 709,-490.6667 709,-498.3333 709,-498.3333 709,-502.1667 705.1667,-506 701.3333,-506"/>
<text text-anchor="middle" x="628" y="-490.8" font-family="Arial" font-size="14.00" fill="#c6c5fe">services/api/lock&#45;api.js</text>
</g>
<!-- services/api/lock&#45;api.js&#45;&gt;services/api/service&#45;api.js -->
<g id="edge22" class="edge">
<title>services/api/lock&#45;api.js&#45;&gt;services/api/service&#45;api.js</title>
<path fill="none" stroke="#757575" d="M698.4448,-482.9701C729.3919,-477.9049 765.8994,-471.9296 797.9232,-466.6882"/>
<polygon fill="#757575" stroke="#757575" points="798.847,-470.0837 808.1503,-465.0143 797.7163,-463.1756 798.847,-470.0837"/>
</g>
<!-- services/api/siren&#45;api.js -->
<g id="node22" class="node">
<title>services/api/siren&#45;api.js</title>
<path fill="none" stroke="#c6c5fe" d="M703.8333,-588C703.8333,-588 552.1667,-588 552.1667,-588 548.3333,-588 544.5,-584.1667 544.5,-580.3333 544.5,-580.3333 544.5,-572.6667 544.5,-572.6667 544.5,-568.8333 548.3333,-565 552.1667,-565 552.1667,-565 703.8333,-565 703.8333,-565 707.6667,-565 711.5,-568.8333 711.5,-572.6667 711.5,-572.6667 711.5,-580.3333 711.5,-580.3333 711.5,-584.1667 707.6667,-588 703.8333,-588"/>
<text text-anchor="middle" x="628" y="-572.8" font-family="Arial" font-size="14.00" fill="#c6c5fe">services/api/siren&#45;api.js</text>
</g>
<!-- services/api/siren&#45;api.js&#45;&gt;services/api/service&#45;api.js -->
<g id="edge23" class="edge">
<title>services/api/siren&#45;api.js&#45;&gt;services/api/service&#45;api.js</title>
<path fill="none" stroke="#757575" d="M711.8066,-567.051C722.8815,-564.3659 733.8886,-560.9204 744,-556.5 790.7283,-536.0717 835.8617,-496.0621 860.1224,-472.3698"/>
<polygon fill="#757575" stroke="#757575" points="862.8985,-474.5452 867.522,-465.0124 857.9629,-469.5813 862.8985,-474.5452"/>
</g>
<!-- services/api/thermostat&#45;api.js -->
<g id="node23" class="node">
<title>services/api/thermostat&#45;api.js</title>
<path fill="none" stroke="#c6c5fe" d="M722.3333,-465C722.3333,-465 533.6667,-465 533.6667,-465 529.8333,-465 526,-461.1667 526,-457.3333 526,-457.3333 526,-449.6667 526,-449.6667 526,-445.8333 529.8333,-442 533.6667,-442 533.6667,-442 722.3333,-442 722.3333,-442 726.1667,-442 730,-445.8333 730,-449.6667 730,-449.6667 730,-457.3333 730,-457.3333 730,-461.1667 726.1667,-465 722.3333,-465"/>
<text text-anchor="middle" x="628" y="-449.8" font-family="Arial" font-size="14.00" fill="#c6c5fe">services/api/thermostat&#45;api.js</text>
</g>
<!-- services/api/thermostat&#45;api.js&#45;&gt;services/api/service&#45;api.js -->
<g id="edge24" class="edge">
<title>services/api/thermostat&#45;api.js&#45;&gt;services/api/service&#45;api.js</title>
<path fill="none" stroke="#757575" d="M730.2492,-453.5C745.7859,-453.5 761.8115,-453.5 777.3251,-453.5"/>
<polygon fill="#757575" stroke="#757575" points="777.4355,-457.0001 787.4355,-453.5 777.4354,-450.0001 777.4355,-457.0001"/>
</g>
<!-- services/camera&#45;service.js&#45;&gt;camera&#45;recordings.js -->
<g id="edge25" class="edge">
<title>services/camera&#45;service.js&#45;&gt;camera&#45;recordings.js</title>
<path fill="none" stroke="#757575" d="M383.8133,-668.019C413.9141,-680.8649 465.4893,-701.0736 512,-710.5 606.4379,-729.6399 717.114,-734.1966 791.9365,-734.7183"/>
<polygon fill="#757575" stroke="#757575" points="792.2348,-738.2196 802.2509,-734.7663 792.2674,-731.2197 792.2348,-738.2196"/>
</g>
<!-- services/camera&#45;service.js&#45;&gt;video&#45;streamer.js -->
<g id="edge28" class="edge">
<title>services/camera&#45;service.js&#45;&gt;video&#45;streamer.js</title>
<path fill="none" stroke="#757575" d="M430.6782,-668.0525C456.3119,-671.691 485.375,-675.3245 512,-677.5 693.8869,-692.3621 908.7514,-694.2106 1019.2213,-694.0152"/>
<polygon fill="#757575" stroke="#757575" points="1019.2665,-697.5152 1029.2581,-693.9913 1019.2497,-690.5153 1019.2665,-697.5152"/>
</g>
<!-- services/camera&#45;service.js&#45;&gt;services/api/camera&#45;api.js -->
<g id="edge26" class="edge">
<title>services/camera&#45;service.js&#45;&gt;services/api/camera&#45;api.js</title>
<path fill="none" stroke="#757575" d="M452.0539,-656.5C475.6244,-656.5 501.0344,-656.5 525.0142,-656.5"/>
<polygon fill="#757575" stroke="#757575" points="525.1943,-660.0001 535.1942,-656.5 525.1942,-653.0001 525.1943,-660.0001"/>
</g>
<!-- services/camera&#45;service.js&#45;&gt;services/service.js -->
<g id="edge27" class="edge">
<title>services/camera&#45;service.js&#45;&gt;services/service.js</title>
<path fill="none" stroke="#757575" d="M378.9424,-644.8756C406.0632,-628.6369 452.6198,-596.4909 476,-555.5 521.8318,-475.1465 446.4875,-415.8096 512,-350.5 522.4069,-340.1254 536.1194,-334.0009 550.4595,-330.5576"/>
<polygon fill="#757575" stroke="#757575" points="551.3227,-333.9548 560.4547,-328.5828 549.9659,-327.0876 551.3227,-333.9548"/>
</g>
<!-- services/contact&#45;sensor&#45;service.js&#45;&gt;services/database.js -->
<g id="edge32" class="edge">
<title>services/contact&#45;sensor&#45;service.js&#45;&gt;services/database.js</title>
<path fill="none" stroke="#757575" d="M454.5921,-277.9877C462.0594,-275.4057 469.2928,-272.2798 476,-268.5 497.126,-256.5945 490.0315,-237.7681 512,-227.5 573.9594,-198.5402 1021.4025,-203.3221 1211.4631,-206.7302"/>
<polygon fill="#757575" stroke="#757575" points="1211.6262,-210.2337 1221.6884,-206.9167 1211.7539,-203.2348 1211.6262,-210.2337"/>
</g>
<!-- services/contact&#45;sensor&#45;service.js&#45;&gt;services/api/contact&#45;sensor&#45;api.js -->
<g id="edge31" class="edge">
<title>services/contact&#45;sensor&#45;service.js&#45;&gt;services/api/contact&#45;sensor&#45;api.js</title>
<path fill="none" stroke="#757575" d="M476.0331,-289.5C484.6004,-289.5 493.2602,-289.5 501.8717,-289.5"/>
<polygon fill="#757575" stroke="#757575" points="501.9502,-293.0001 511.9502,-289.5 501.9502,-286.0001 501.9502,-293.0001"/>
</g>
<!-- services/contact&#45;sensor&#45;service.js&#45;&gt;services/service.js -->
<g id="edge33" class="edge">
<title>services/contact&#45;sensor&#45;service.js&#45;&gt;services/service.js</title>
<path fill="none" stroke="#757575" d="M433.9286,-301.0299C470.2842,-306.5506 513.7594,-313.1524 550.3372,-318.7068"/>
<polygon fill="#757575" stroke="#757575" points="550.0473,-322.2028 560.4595,-320.2438 551.0983,-315.2821 550.0473,-322.2028"/>
</g>
<!-- services/drivers/light&#45;hue.js -->
<g id="node27" class="node">
<title>services/drivers/light&#45;hue.js</title>
<path fill="none" stroke="#c6c5fe" d="M715.8333,-100C715.8333,-100 540.1667,-100 540.1667,-100 536.3333,-100 532.5,-96.1667 532.5,-92.3333 532.5,-92.3333 532.5,-84.6667 532.5,-84.6667 532.5,-80.8333 536.3333,-77 540.1667,-77 540.1667,-77 715.8333,-77 715.8333,-77 719.6667,-77 723.5,-80.8333 723.5,-84.6667 723.5,-84.6667 723.5,-92.3333 723.5,-92.3333 723.5,-96.1667 719.6667,-100 715.8333,-100"/>
<text text-anchor="middle" x="628" y="-84.8" font-family="Arial" font-size="14.00" fill="#c6c5fe">services/drivers/light&#45;hue.js</text>
</g>
<!-- services/drivers/light&#45;hue.js&#45;&gt;devices/devices&#45;manager.js -->
<g id="edge34" class="edge">
<title>services/drivers/light&#45;hue.js&#45;&gt;devices/devices&#45;manager.js</title>
<path fill="none" stroke="#757575" d="M702.3378,-100.048C716.5485,-103.6673 731.0271,-108.3804 744,-114.5 762.3325,-123.1478 761.8332,-133.5093 780,-142.5 789.1895,-147.0479 799.2682,-150.8693 809.3623,-154.0601"/>
<polygon fill="#757575" stroke="#757575" points="808.4334,-157.4352 819.0162,-156.9291 810.4276,-150.7253 808.4334,-157.4352"/>
</g>
<!-- services/drivers/lock&#45;mock.js -->
<g id="node28" class="node">
<title>services/drivers/lock&#45;mock.js</title>
<path fill="none" stroke="#cfffac" d="M721.3333,-547C721.3333,-547 534.6667,-547 534.6667,-547 530.8333,-547 527,-543.1667 527,-539.3333 527,-539.3333 527,-531.6667 527,-531.6667 527,-527.8333 530.8333,-524 534.6667,-524 534.6667,-524 721.3333,-524 721.3333,-524 725.1667,-524 729,-527.8333 729,-531.6667 729,-531.6667 729,-539.3333 729,-539.3333 729,-543.1667 725.1667,-547 721.3333,-547"/>
<text text-anchor="middle" x="628" y="-531.8" font-family="Arial" font-size="14.00" fill="#cfffac">services/drivers/lock&#45;mock.js</text>
</g>
<!-- services/drivers/lock&#45;zwave.js -->
<g id="node29" class="node">
<title>services/drivers/lock&#45;zwave.js</title>
<path fill="none" stroke="#c6c5fe" d="M724.8333,-424C724.8333,-424 531.1667,-424 531.1667,-424 527.3333,-424 523.5,-420.1667 523.5,-416.3333 523.5,-416.3333 523.5,-408.6667 523.5,-408.6667 523.5,-404.8333 527.3333,-401 531.1667,-401 531.1667,-401 724.8333,-401 724.8333,-401 728.6667,-401 732.5,-404.8333 732.5,-408.6667 732.5,-408.6667 732.5,-416.3333 732.5,-416.3333 732.5,-420.1667 728.6667,-424 724.8333,-424"/>
<text text-anchor="middle" x="628" y="-408.8" font-family="Arial" font-size="14.00" fill="#c6c5fe">services/drivers/lock&#45;zwave.js</text>
</g>
<!-- services/drivers/lock&#45;zwave.js&#45;&gt;zwave.js -->
<g id="edge35" class="edge">
<title>services/drivers/lock&#45;zwave.js&#45;&gt;zwave.js</title>
<path fill="none" stroke="#757575" d="M721.9241,-400.9259C729.6108,-398.3653 737.0759,-395.2607 744,-391.5 799.3359,-361.4452 844.8565,-300.2861 865.906,-268.5754"/>
<polygon fill="#757575" stroke="#757575" points="868.8968,-270.3962 871.41,-260.1038 863.0269,-266.5825 868.8968,-270.3962"/>
</g>
<!-- services/drivers/thermostat&#45;wifi.js -->
<g id="node30" class="node">
<title>services/drivers/thermostat&#45;wifi.js</title>
<path fill="none" stroke="#cfffac" d="M734.8333,-383C734.8333,-383 521.1667,-383 521.1667,-383 517.3333,-383 513.5,-379.1667 513.5,-375.3333 513.5,-375.3333 513.5,-367.6667 513.5,-367.6667 513.5,-363.8333 517.3333,-360 521.1667,-360 521.1667,-360 734.8333,-360 734.8333,-360 738.6667,-360 742.5,-363.8333 742.5,-367.6667 742.5,-367.6667 742.5,-375.3333 742.5,-375.3333 742.5,-379.1667 738.6667,-383 734.8333,-383"/>
<text text-anchor="middle" x="628" y="-367.8" font-family="Arial" font-size="14.00" fill="#cfffac">services/drivers/thermostat&#45;wifi.js</text>
</g>
<!-- services/gateway&#45;service.js&#45;&gt;devices/devices&#45;manager.js -->
<g id="edge36" class="edge">
<title>services/gateway&#45;service.js&#45;&gt;devices/devices&#45;manager.js</title>
<path fill="none" stroke="#757575" d="M418.2563,-236.9637C438.1818,-230.9525 459.4625,-221.9345 476,-208.5 500.434,-188.6508 484.6623,-163.1097 512,-147.5 560.4783,-119.8191 714.2321,-139.8565 806.4784,-155.2666"/>
<polygon fill="#757575" stroke="#757575" points="806.1406,-158.7591 816.5845,-156.9774 807.309,-151.8573 806.1406,-158.7591"/>
</g>
<!-- services/gateway&#45;service.js&#45;&gt;services/api/gateway&#45;api.js -->
<g id="edge37" class="edge">
<title>services/gateway&#45;service.js&#45;&gt;services/api/gateway&#45;api.js</title>
<path fill="none" stroke="#757575" d="M455.0947,-248.5C476.8582,-248.5 500.0519,-248.5 522.1511,-248.5"/>
<polygon fill="#757575" stroke="#757575" points="522.2188,-252.0001 532.2187,-248.5 522.2187,-245.0001 522.2188,-252.0001"/>
</g>
<!-- services/gateway&#45;service.js&#45;&gt;services/service.js -->
<g id="edge38" class="edge">
<title>services/gateway&#45;service.js&#45;&gt;services/service.js</title>
<path fill="none" stroke="#757575" d="M455.1844,-259.3477C462.4402,-261.8387 469.4683,-264.8544 476,-268.5 497.1748,-280.3185 490.8917,-297.5632 512,-309.5 523.641,-316.083 536.8969,-320.6736 550.1849,-323.86"/>
<polygon fill="#757575" stroke="#757575" points="549.815,-327.3601 560.3263,-326.0327 551.2814,-320.5154 549.815,-327.3601"/>
</g>
<!-- services/hue&#45;bridge&#45;service.js&#45;&gt;services/service.js -->
<g id="edge39" class="edge">
<title>services/hue&#45;bridge&#45;service.js&#45;&gt;services/service.js</title>
<path fill="none" stroke="#757575" d="M437.913,-357.957C473.2955,-352.8462 514.7718,-346.8552 549.9374,-341.7757"/>
<polygon fill="#757575" stroke="#757575" points="550.758,-345.1936 560.1549,-340.2999 549.7572,-338.2655 550.758,-345.1936"/>
</g>
<!-- services/light&#45;service.js&#45;&gt;services/api/light&#45;api.js -->
<g id="edge40" class="edge">
<title>services/light&#45;service.js&#45;&gt;services/api/light&#45;api.js</title>
<path fill="none" stroke="#757575" d="M441.212,-182.3361C471.4205,-180.0985 505.7066,-177.5588 536.585,-175.2715"/>
<polygon fill="#757575" stroke="#757575" points="537.2012,-178.7355 546.9153,-174.5063 536.6841,-171.7546 537.2012,-178.7355"/>
</g>
<!-- services/light&#45;service.js&#45;&gt;services/service.js -->
<g id="edge42" class="edge">
<title>services/light&#45;service.js&#45;&gt;services/service.js</title>
<path fill="none" stroke="#757575" d="M424.6894,-200.0421C442.9966,-205.8301 461.7158,-214.5054 476,-227.5 505.4419,-254.2838 480.7555,-284.8428 512,-309.5 523.0535,-318.2231 536.5442,-323.7743 550.3636,-327.2284"/>
<polygon fill="#757575" stroke="#757575" points="549.9432,-330.7176 560.4543,-329.3883 551.4084,-323.8726 549.9432,-330.7176"/>
</g>
<!-- services/light&#45;service.js&#45;&gt;services/drivers/light&#45;hue.js -->
<g id="edge41" class="edge">
<title>services/light&#45;service.js&#45;&gt;services/drivers/light&#45;hue.js</title>
<path fill="none" stroke="#757575" d="M378.2864,-176.9006C407.1529,-160.8303 462.1221,-131.8198 512,-114.5 525.544,-109.7969 540.2793,-105.7317 554.562,-102.3046"/>
<polygon fill="#757575" stroke="#757575" points="555.4062,-105.7018 564.3575,-100.0339 553.8254,-98.8826 555.4062,-105.7018"/>
</g>
<!-- services/lock&#45;service.js&#45;&gt;services/api/lock&#45;api.js -->
<g id="edge43" class="edge">
<title>services/lock&#45;service.js&#45;&gt;services/api/lock&#45;api.js</title>
<path fill="none" stroke="#757575" d="M430.355,-463.0232C465.7649,-468.6626 508.5631,-475.4786 545.266,-481.3238"/>
<polygon fill="#757575" stroke="#757575" points="545.0192,-484.8286 555.4452,-482.945 546.1202,-477.9157 545.0192,-484.8286"/>
</g>
<!-- services/lock&#45;service.js&#45;&gt;services/service.js -->
<g id="edge46" class="edge">
<title>services/lock&#45;service.js&#45;&gt;services/service.js</title>
<path fill="none" stroke="#757575" d="M441.0584,-448.063C453.6569,-444.6479 465.8247,-439.4009 476,-431.5 507.1164,-407.3387 480.9179,-374.7054 512,-350.5 523.0283,-341.9117 536.4442,-336.4849 550.1847,-333.1433"/>
<polygon fill="#757575" stroke="#757575" points="551.1364,-336.5205 560.2177,-331.0633 549.7154,-329.6663 551.1364,-336.5205"/>
</g>
<!-- services/lock&#45;service.js&#45;&gt;services/drivers/lock&#45;mock.js -->
<g id="edge44" class="edge">
<title>services/lock&#45;service.js&#45;&gt;services/drivers/lock&#45;mock.js</title>
<path fill="none" stroke="#757575" d="M381.1541,-463.0444C410.7862,-477.3653 464.033,-501.5873 512,-515.5 520.1997,-517.8783 528.8124,-520.013 537.485,-521.9203"/>
<polygon fill="#757575" stroke="#757575" points="536.7773,-525.3479 547.2832,-523.9778 538.216,-518.4973 536.7773,-525.3479"/>
</g>
<!-- services/lock&#45;service.js&#45;&gt;services/drivers/lock&#45;zwave.js -->
<g id="edge45" class="edge">
<title>services/lock&#45;service.js&#45;&gt;services/drivers/lock&#45;zwave.js</title>
<path fill="none" stroke="#757575" d="M437.913,-439.957C469.4797,-435.3974 505.8966,-430.1372 538.3554,-425.4487"/>
<polygon fill="#757575" stroke="#757575" points="538.8952,-428.9071 548.292,-424.0134 537.8944,-421.979 538.8952,-428.9071"/>
</g>
<!-- services/siren&#45;service.js&#45;&gt;services/database.js -->
<g id="edge57" class="edge">
<title>services/siren&#45;service.js&#45;&gt;services/database.js</title>
<path fill="none" stroke="#757575" d="M379.1029,-546.238C408.0325,-561.5918 462.1145,-587.6907 512,-597.5 613.1737,-617.3944 643.9147,-622.2959 744,-597.5 991.8351,-536.0994 1217.6225,-297.9172 1279.7053,-227.9377"/>
<polygon fill="#757575" stroke="#757575" points="1282.4807,-230.0817 1286.4553,-220.2606 1277.2237,-225.4595 1282.4807,-230.0817"/>
</g>
<!-- services/siren&#45;service.js&#45;&gt;services/api/siren&#45;api.js -->
<g id="edge56" class="edge">
<title>services/siren&#45;service.js&#45;&gt;services/api/siren&#45;api.js</title>
<path fill="none" stroke="#757575" d="M432.1358,-546.0322C466.8116,-551.4262 508.2631,-557.8743 544.0854,-563.4466"/>
<polygon fill="#757575" stroke="#757575" points="543.6104,-566.9147 554.0296,-564.9935 544.6864,-559.9979 543.6104,-566.9147"/>
</g>
<!-- services/siren&#45;service.js&#45;&gt;services/service.js -->
<g id="edge58" class="edge">
<title>services/siren&#45;service.js&#45;&gt;services/service.js</title>
<path fill="none" stroke="#757575" d="M396.9098,-522.9675C422.802,-513.3955 455.6729,-497.281 476,-472.5 511.8538,-428.7901 469.7708,-388.0865 512,-350.5 522.7906,-340.8957 536.4664,-335.0705 550.6114,-331.6696"/>
<polygon fill="#757575" stroke="#757575" points="551.3385,-335.0935 560.4493,-329.6858 549.9548,-328.2316 551.3385,-335.0935"/>
</g>
<!-- services/thermostat&#45;service.js&#45;&gt;services/api/thermostat&#45;api.js -->
<g id="edge59" class="edge">
<title>services/thermostat&#45;service.js&#45;&gt;services/api/thermostat&#45;api.js</title>
<path fill="none" stroke="#757575" d="M430.355,-422.0232C465.7649,-427.6626 508.5631,-434.4786 545.266,-440.3238"/>
<polygon fill="#757575" stroke="#757575" points="545.0192,-443.8286 555.4452,-441.945 546.1202,-436.9157 545.0192,-443.8286"/>
</g>
<!-- services/thermostat&#45;service.js&#45;&gt;services/service.js -->
<g id="edge61" class="edge">
<title>services/thermostat&#45;service.js&#45;&gt;services/service.js</title>
<path fill="none" stroke="#757575" d="M454.1863,-398.9068C461.7834,-396.3453 469.155,-393.2461 476,-389.5 496.6929,-378.1753 491.2767,-361.7689 512,-350.5 523.7314,-344.1207 537.0315,-339.695 550.3353,-336.6412"/>
<polygon fill="#757575" stroke="#757575" points="551.3887,-339.9982 560.4836,-334.5637 549.9848,-333.1404 551.3887,-339.9982"/>
</g>
<!-- services/thermostat&#45;service.js&#45;&gt;services/drivers/thermostat&#45;wifi.js -->
<g id="edge60" class="edge">
<title>services/thermostat&#45;service.js&#45;&gt;services/drivers/thermostat&#45;wifi.js</title>
<path fill="none" stroke="#757575" d="M437.913,-398.957C469.4797,-394.3974 505.8966,-389.1372 538.3554,-384.4487"/>
<polygon fill="#757575" stroke="#757575" points="538.8952,-387.9071 548.292,-383.0134 537.8944,-380.979 538.8952,-387.9071"/>
</g>
</g>
</svg>
